{
    "asset" : {
        "generator" : "Khronos glTF Blender I/O v1.5.17",
        "version" : "2.0"
    },
    "scene" : 0,
    "scenes" : [
        {
            "name" : "Scene",
            "nodes" : [
                0,
                1,
                2
            ]
        }
    ],
    "nodes" : [
        {
            "name" : "Light",
            "rotation" : [
                0.16907575726509094,
                0.7558803558349609,
                -0.27217137813568115,
                0.570947527885437
            ],
            "translation" : [
                4.076245307922363,
                5.903861999511719,
                -1.0054539442062378
            ]
        },
        {
            "name" : "Camera",
            "rotation" : [
                0.483536034822464,
                0.33687159419059753,
                -0.20870360732078552,
                0.7804827094078064
            ],
            "translation" : [
                7.358891487121582,
                4.958309173583984,
                6.925790786743164
            ]
        },
        {
            "mesh" : 0,
            "name" : "Full_Size_Bed_with_White_Sheets_Black_V1",
            "rotation" : [
                -0.009633929468691349,
                0,
                0,
                0.9999536871910095
            ],
            "translation" : [
                0,
                39.55463409423828,
                0
            ]
        }
    ],
    "materials" : [
        {
            "doubleSided" : true,
            "name" : "Ebony_mat",
            "pbrMetallicRoughness" : {
                "baseColorFactor" : [
                    0.11760000139474869,
                    0.11760000139474869,
                    0.11760000139474869,
                    1
                ],
                "metallicFactor" : 0,
                "roughnessFactor" : 0.8300327062606812
            }
        },
        {
            "doubleSided" : true,
            "name" : "White_Mat__cloth_",
            "pbrMetallicRoughness" : {
                "baseColorFactor" : [
                    0.9685999751091003,
                    0.9685999751091003,
                    0.9685999751091003,
                    1
                ],
                "metallicFactor" : 0,
                "roughnessFactor" : 0.8945907354354858
            }
        }
    ],
    "meshes" : [
        {
            "name" : "Full_Size_Bed_with_White_Sheets_Black_V1",
            "primitives" : [
                {
                    "attributes" : {
                        "POSITION" : 0,
                        "NORMAL" : 1,
                        "TEXCOORD_0" : 2
                    },
                    "indices" : 3,
                    "material" : 0
                },
                {
                    "attributes" : {
                        "POSITION" : 4,
                        "NORMAL" : 5,
                        "TEXCOORD_0" : 6
                    },
                    "indices" : 7,
                    "material" : 1
                }
            ]
        }
    ],
    "accessors" : [
        {
            "bufferView" : 0,
            "componentType" : 5126,
            "count" : 1255,
            "max" : [
                73.966796875,
                45.83140182495117,
                99.5385971069336
            ],
            "min" : [
                -74.39749908447266,
                -45.83140182495117,
                -99.5385971069336
            ],
            "type" : "VEC3"
        },
        {
            "bufferView" : 1,
            "componentType" : 5126,
            "count" : 1255,
            "type" : "VEC3"
        },
        {
            "bufferView" : 2,
            "componentType" : 5126,
            "count" : 1255,
            "type" : "VEC2"
        },
        {
            "bufferView" : 3,
            "componentType" : 5123,
            "count" : 4104,
            "type" : "SCALAR"
        },
        {
            "bufferView" : 4,
            "componentType" : 5126,
            "count" : 13420,
            "max" : [
                74.39749908447266,
                19.610700607299805,
                94.20099639892578
            ],
            "min" : [
                -73.4135971069336,
                -36.63589859008789,
                -96.12110137939453
            ],
            "type" : "VEC3"
        },
        {
            "bufferView" : 5,
            "componentType" : 5126,
            "count" : 13420,
            "type" : "VEC3"
        },
        {
            "bufferView" : 6,
            "componentType" : 5126,
            "count" : 13420,
            "type" : "VEC2"
        },
        {
            "bufferView" : 7,
            "componentType" : 5123,
            "count" : 70464,
            "type" : "SCALAR"
        }
    ],
    "bufferViews" : [
        {
            "buffer" : 0,
            "byteLength" : 15060,
            "byteOffset" : 0
        },
        {
            "buffer" : 0,
            "byteLength" : 15060,
            "byteOffset" : 15060
        },
        {
            "buffer" : 0,
            "byteLength" : 10040,
            "byteOffset" : 30120
        },
        {
            "buffer" : 0,
            "byteLength" : 8208,
            "byteOffset" : 40160
        },
        {
            "buffer" : 0,
            "byteLength" : 161040,
            "byteOffset" : 48368
        },
        {
            "buffer" : 0,
            "byteLength" : 161040,
            "byteOffset" : 209408
        },
        {
            "buffer" : 0,
            "byteLength" : 107360,
            "byteOffset" : 370448
        },
        {
            "buffer" : 0,
            "byteLength" : 140928,
            "byteOffset" : 477808
        }
    ],
    "buffers" : [
        {
            "byteLength" : 618736,
            "uri" : "data:application/octet-stream;base64,"
        }
    ]
}
