{
    "asset" : {
        "generator" : "Khronos glTF Blender I/O v1.5.17",
        "version" : "2.0"
    },
    "scene" : 0,
    "scenes" : [
        {
            "name" : "Scene",
            "nodes" : [
                0,
                1,
                3
            ]
        }
    ],
    "nodes" : [
        {
            "name" : "Light",
            "rotation" : [
                0.16907575726509094,
                0.7558803558349609,
                -0.27217137813568115,
                0.570947527885437
            ],
            "translation" : [
                4.076245307922363,
                5.903861999511719,
                -1.0054539442062378
            ]
        },
        {
            "name" : "Camera",
            "rotation" : [
                0.483536034822464,
                0.33687159419059753,
                -0.20870360732078552,
                0.7804827094078064
            ],
            "translation" : [
                7.358891487121582,
                4.958309173583984,
                6.925790786743164
            ]
        },
        {
            "mesh" : 0,
            "name" : "Body1"
        },
        {
            "children" : [
                2
            ],
            "name" : "search bar v4",
            "rotation" : [
                -0.694529116153717,
                0,
                0,
                0.7194646000862122
            ],
            "scale" : [
                0.009999999776482582,
                0.009999999776482582,
                0.009999999776482582
            ]
        }
    ],
    "materials" : [
        {
            "doubleSided" : true,
            "name" : "Paint - Enamel Glossy (Dark Grey)",
            "pbrMetallicRoughness" : {
                "baseColorFactor" : [
                    0.3490196168422699,
                    0.3490196168422699,
                    0.3490196168422699,
                    1
                ],
                "roughnessFactor" : 0.5527864098548889
            }
        },
        {
            "doubleSided" : true,
            "name" : "Paint - Enamel Glossy (Blue)",
            "pbrMetallicRoughness" : {
                "baseColorFactor" : [
                    0.1882352977991104,
                    0.23137255012989044,
                    0.5882353186607361,
                    1
                ],
                "roughnessFactor" : 0.5527864098548889
            }
        },
        {
            "doubleSided" : true,
            "name" : "Paint - Enamel Glossy (Yellow)",
            "pbrMetallicRoughness" : {
                "baseColorFactor" : [
                    0.9098039269447327,
                    0.6784313917160034,
                    0.13725490868091583,
                    1
                ],
                "roughnessFactor" : 0.5527864098548889
            }
        }
    ],
    "meshes" : [
        {
            "name" : "Body1",
            "primitives" : [
                {
                    "attributes" : {
                        "POSITION" : 0,
                        "NORMAL" : 1,
                        "TEXCOORD_0" : 2
                    },
                    "indices" : 3,
                    "material" : 0
                },
                {
                    "attributes" : {
                        "POSITION" : 4,
                        "NORMAL" : 5,
                        "TEXCOORD_0" : 6
                    },
                    "indices" : 7,
                    "material" : 1
                },
                {
                    "attributes" : {
                        "POSITION" : 8,
                        "NORMAL" : 9,
                        "TEXCOORD_0" : 10
                    },
                    "indices" : 11,
                    "material" : 2
                }
            ]
        }
    ],
    "accessors" : [
        {
            "bufferView" : 0,
            "componentType" : 5126,
            "count" : 4621,
            "max" : [
                12.75,
                3.5,
                0.800000011920929
            ],
            "min" : [
                -10.25,
                0,
                -7.771561172376096e-16
            ],
            "type" : "VEC3"
        },
        {
            "bufferView" : 1,
            "componentType" : 5126,
            "count" : 4621,
            "type" : "VEC3"
        },
        {
            "bufferView" : 2,
            "componentType" : 5126,
            "count" : 4621,
            "type" : "VEC2"
        },
        {
            "bufferView" : 3,
            "componentType" : 5123,
            "count" : 14280,
            "type" : "SCALAR"
        },
        {
            "bufferView" : 4,
            "componentType" : 5126,
            "count" : 103,
            "max" : [
                12.126358032226562,
                2.8763575553894043,
                0.800000011920929
            ],
            "min" : [
                9.873641967773438,
                0.6236423254013062,
                0.800000011920929
            ],
            "type" : "VEC3"
        },
        {
            "bufferView" : 5,
            "componentType" : 5126,
            "count" : 103,
            "type" : "VEC3"
        },
        {
            "bufferView" : 6,
            "componentType" : 5126,
            "count" : 103,
            "type" : "VEC2"
        },
        {
            "bufferView" : 7,
            "componentType" : 5123,
            "count" : 306,
            "type" : "SCALAR"
        },
        {
            "bufferView" : 8,
            "componentType" : 5126,
            "count" : 74,
            "max" : [
                -7.270762920379639,
                2.725432872772217,
                0.800000011920929
            ],
            "min" : [
                -8.876248359680176,
                0.6507159471511841,
                0.800000011920929
            ],
            "type" : "VEC3"
        },
        {
            "bufferView" : 9,
            "componentType" : 5126,
            "count" : 74,
            "type" : "VEC3"
        },
        {
            "bufferView" : 10,
            "componentType" : 5126,
            "count" : 74,
            "type" : "VEC2"
        },
        {
            "bufferView" : 11,
            "componentType" : 5123,
            "count" : 222,
            "type" : "SCALAR"
        }
    ],
    "bufferViews" : [
        {
            "buffer" : 0,
            "byteLength" : 55452,
            "byteOffset" : 0
        },
        {
            "buffer" : 0,
            "byteLength" : 55452,
            "byteOffset" : 55452
        },
        {
            "buffer" : 0,
            "byteLength" : 36968,
            "byteOffset" : 110904
        },
        {
            "buffer" : 0,
            "byteLength" : 28560,
            "byteOffset" : 147872
        },
        {
            "buffer" : 0,
            "byteLength" : 1236,
            "byteOffset" : 176432
        },
        {
            "buffer" : 0,
            "byteLength" : 1236,
            "byteOffset" : 177668
        },
        {
            "buffer" : 0,
            "byteLength" : 824,
            "byteOffset" : 178904
        },
        {
            "buffer" : 0,
            "byteLength" : 612,
            "byteOffset" : 179728
        },
        {
            "buffer" : 0,
            "byteLength" : 888,
            "byteOffset" : 180340
        },
        {
            "buffer" : 0,
            "byteLength" : 888,
            "byteOffset" : 181228
        },
        {
            "buffer" : 0,
            "byteLength" : 592,
            "byteOffset" : 182116
        },
        {
            "buffer" : 0,
            "byteLength" : 444,
            "byteOffset" : 182708
        }
    ],
    "buffers" : [
        {
            "byteLength" : 183152,
            "uri" : "data:application/octet-stream;base64,"
        }
    ]
}
